Coordinates
version=1
nRows=16
nColumns=40
inDegrees=yes

Units are S.I. units (second, meters, Newtons, ...)
If the header above contains a line with 'inDegrees', this indicates whether rotational values are in degrees (yes) or radians (no).

endheader
time	pelvis_tilt	pelvis_list	pelvis_rotation	pelvis_tx	pelvis_ty	pelvis_tz	hip_flexion_r	hip_adduction_r	hip_rotation_r	knee_angle_r	knee_angle_r_beta	ankle_angle_r	subtalar_angle_r	mtp_angle_r	hip_flexion_l	hip_adduction_l	hip_rotation_l	knee_angle_l	knee_angle_l_beta	ankle_angle_l	subtalar_angle_l	mtp_angle_l	lumbar_extension	lumbar_bending	lumbar_rotation	arm_flex_r	arm_add_r	arm_rot_r	elbow_flex_r	pro_sup_r	wrist_flex_r	wrist_dev_r	arm_flex_l	arm_add_l	arm_rot_l	elbow_flex_l	pro_sup_l	wrist_flex_l	wrist_dev_l
      3.40000000	    -28.00807600	     -6.60757350	     -6.35126434	     -0.36888424	      0.73992387	     -0.71789907	     79.84557975	     13.33503104	     -8.69867113	     84.21911785	      1.46990090	     27.18876730	      0.00000000	      0.00000000	     38.75982095	     -8.60440003	      7.82037820	    105.84854610	      1.84740564	     -5.80006903	      0.00000000	      0.00000000	    -16.79374991	      7.90447872	      9.47194317	     89.95186619	    -10.53611239	      7.75625591	     59.45851784	     86.38146000	      0.00000000	      0.00000000	     89.94991857	     -6.28951103	      5.13796652	     55.83356486	     84.63004863	      0.00000000	      0.00000000
      3.40500000	    -27.95111265	     -6.62812413	     -6.36796273	     -0.36869948	      0.74058760	     -0.71793805	     79.66877242	     13.37877388	     -8.67193218	     84.02780432	      1.46656185	     27.12008429	      0.00000000	      0.00000000	     38.71843842	     -8.58061544	      7.90879206	    105.78097293	      1.84622626	     -5.80898850	      0.00000000	      0.00000000	    -16.85383848	      7.92375695	      9.49543172	     89.95180284	    -10.54489965	      7.77995481	     59.36936594	     86.35456021	      0.00000000	      0.00000000	     89.94987084	     -6.27963946	      5.17258911	     55.76534307	     84.66398858	      0.00000000	      0.00000000
      3.41000000	    -27.86816078	     -6.64237220	     -6.39906185	     -0.36851441	      0.74117421	     -0.71798858	     79.51203633	     13.40451920	     -8.68952714	     83.94498531	      1.46511638	     27.06934077	      0.00000000	      0.00000000	     38.63704340	     -8.61099157	      7.91029877	    105.71002003	      1.84498790	     -5.80539522	      0.00000000	      0.00000000	    -16.93570398	      7.94256620	      9.52696905	     89.95172596	    -10.53314973	      7.85300235	     59.31048483	     86.34434622	      0.00000000	      0.00000000	     89.94994202	     -6.27973363	      5.18059526	     55.68711010	     84.70746714	      0.00000000	      0.00000000
      3.41500000	    -27.86938647	     -6.63105558	     -6.41900307	     -0.36845026	      0.74152379	     -0.71808044	     79.50038253	     13.40237723	     -8.67925579	     83.93473362	      1.46493746	     27.06871683	      0.00000000	      0.00000000	     38.66307215	     -8.61401633	      7.92484319	    105.68451071	      1.84454268	     -5.80042594	      0.00000000	      0.00000000	    -16.92182695	      7.94229472	      9.52128297	     89.95159107	    -10.53378023	      7.84323133	     59.32966823	     86.34176180	      0.00000000	      0.00000000	     89.94969262	     -6.27359110	      5.17707993	     55.70886265	     84.71053091	      0.00000000	      0.00000000
      3.42000000	    -27.87380086	     -6.61766728	     -6.43521045	     -0.36838676	      0.74194606	     -0.71817723	     79.47524052	     13.40270290	     -8.66580415	     83.90986132	      1.46450335	     27.06287344	      0.00000000	      0.00000000	     38.69999871	     -8.60592401	      7.94008349	    105.65582160	      1.84404196	     -5.79479156	      0.00000000	      0.00000000	    -16.91349006	      7.93985709	      9.51825517	     89.95149120	    -10.53588474	      7.83565631	     59.33983452	     86.33908896	      0.00000000	      0.00000000	     89.94960831	     -6.26696597	      5.17816294	     55.72399658	     84.71384777	      0.00000000	      0.00000000
      3.42500000	    -27.84759303	     -6.58304328	     -6.45145919	     -0.36832103	      0.74262201	     -0.71825428	     79.31932753	     13.43331991	     -8.57195228	     83.67835552	      1.46046282	     26.99569336	      0.00000000	      0.00000000	     38.71764437	     -8.52139614	      7.98702636	    105.59555625	      1.84299013	     -5.81099605	      0.00000000	      0.00000000	    -16.92301693	      7.90312885	      9.53382793	     89.95138283	    -10.55788115	      7.87143200	     59.22848091	     86.32776536	      0.00000000	      0.00000000	     89.94953296	     -6.25470162	      5.24900272	     55.63589643	     84.74200668	      0.00000000	      0.00000000
      3.43000000	    -27.84123198	     -6.57368387	     -6.46361269	     -0.36821295	      0.74310947	     -0.71834203	     79.29125664	     13.43627278	     -8.55857618	     83.66125226	      1.46016431	     26.98935134	      0.00000000	      0.00000000	     38.74385309	     -8.52882806	      7.99719099	    105.56151808	      1.84239605	     -5.80651925	      0.00000000	      0.00000000	    -16.91502783	      7.90340145	      9.52851380	     89.95122773	    -10.56078485	      7.86531524	     59.23809401	     86.32508442	      0.00000000	      0.00000000	     89.94942035	     -6.24719494	      5.25294703	     55.64956489	     84.74605743	      0.00000000	      0.00000000
      3.43500000	    -27.76018066	     -6.59000225	     -6.43283785	     -0.36801896	      0.74390140	     -0.71846500	     79.07459271	     13.46067815	     -8.48722211	     83.44987450	      1.45647507	     26.92352092	      0.00000000	      0.00000000	     38.68613447	     -8.49974554	      8.06141033	    105.48506410	      1.84106168	     -5.83505440	      0.00000000	      0.00000000	    -16.98202431	      7.92250810	      9.51264535	     89.95120809	    -10.59203953	      7.89928659	     59.11860652	     86.30946528	      0.00000000	      0.00000000	     89.94946145	     -6.22192139	      5.35006112	     55.54327342	     84.77867869	      0.00000000	      0.00000000
      3.44000000	    -27.75021786	     -6.57454283	     -6.44915709	     -0.36796633	      0.74441098	     -0.71852437	     79.04694951	     13.46393217	     -8.48235200	     83.43584896	      1.45623028	     26.91945940	      0.00000000	      0.00000000	     38.72218156	     -8.50052519	      8.06669091	    105.45639152	      1.84056125	     -5.82704169	      0.00000000	      0.00000000	    -16.98091938	      7.91476020	      9.51426024	     89.95108490	    -10.59075721	      7.89313590	     59.13190483	     86.30687548	      0.00000000	      0.00000000	     89.94936103	     -6.21943694	      5.35221476	     55.55883264	     84.78208699	      0.00000000	      0.00000000
      3.44500000	    -27.71805716	     -6.52578719	     -6.46297554	     -0.36785002	      0.74508707	     -0.71863570	     78.89583375	     13.46846237	     -8.40249433	     83.26786359	      1.45329838	     26.86942703	      0.00000000	      0.00000000	     38.72788320	     -8.42424357	      8.05553407	    105.40415272	      1.83964951	     -5.83331109	      0.00000000	      0.00000000	    -16.99603534	      7.87111884	      9.51232492	     89.95097891	    -10.60946797	      7.92556138	     59.05487135	     86.29510819	      0.00000000	      0.00000000	     89.94923274	     -6.22499498	      5.42343889	     55.49234967	     84.80594569	      0.00000000	      0.00000000
      3.45000000	    -27.70832022	     -6.51938011	     -6.47368587	     -0.36772768	      0.74565220	     -0.71869198	     78.86069102	     13.47521885	     -8.38812745	     83.24268689	      1.45285896	     26.86090885	      0.00000000	      0.00000000	     38.74766442	     -8.43195787	      8.06351659	    105.37333875	      1.83911170	     -5.82839364	      0.00000000	      0.00000000	    -16.99327776	      7.86993248	      9.50624359	     89.95087342	    -10.61237602	      7.92275907	     59.06090265	     86.29252349	      0.00000000	      0.00000000	     89.94920406	     -6.21553770	      5.43122613	     55.50510791	     84.81021216	      0.00000000	      0.00000000
      3.45500000	    -27.60209270	     -6.55114548	     -6.47910115	     -0.36746441	      0.74656526	     -0.71877167	     78.60628075	     13.54873803	     -8.30547963	     82.99631307	      1.44855893	     26.77644724	      0.00000000	      0.00000000	     38.64234220	     -8.43817192	      8.10652703	    105.29210333	      1.83769388	     -5.81265767	      0.00000000	      0.00000000	    -17.08645724	      7.89229375	      9.52630052	     89.95088490	    -10.64640257	      7.98661101	     58.92621455	     86.27922684	      0.00000000	      0.00000000	     89.94925535	     -6.20214191	      5.53680186	     55.39551673	     84.84767696	      0.00000000	      0.00000000
      3.46000000	    -27.59380242	     -6.53575633	     -6.48132970	     -0.36740177	      0.74712042	     -0.71886463	     78.56783206	     13.54041339	     -8.29195303	     82.97776350	      1.44823518	     26.77175570	      0.00000000	      0.00000000	     38.68852313	     -8.43644287	      8.10364930	    105.26464244	      1.83721460	     -5.80389369	      0.00000000	      0.00000000	    -17.08145217	      7.89572782	      9.52678751	     89.95080440	    -10.64882335	      7.97977698	     58.94136584	     86.27675220	      0.00000000	      0.00000000	     89.94914414	     -6.20048690	      5.53889613	     55.41319928	     84.85131528	      0.00000000	      0.00000000
      3.46500000	    -27.58724655	     -6.52030750	     -6.47640435	     -0.36731310	      0.74775567	     -0.71897285	     78.51251175	     13.53065286	     -8.26706748	     82.92589023	      1.44732982	     26.75800423	      0.00000000	      0.00000000	     38.72404300	     -8.41944582	      8.10341621	    105.23424018	      1.83668398	     -5.80187325	      0.00000000	      0.00000000	    -17.07687403	      7.89298904	      9.51288977	     89.95070549	    -10.65529975	      7.97597086	     58.94600243	     86.27438957	      0.00000000	      0.00000000	     89.94904151	     -6.19476974	      5.54783174	     55.42081162	     84.85556271	      0.00000000	      0.00000000
      3.47000000	    -27.55875156	     -6.45892160	     -6.46396257	     -0.36722238	      0.74851183	     -0.71911725	     78.34615669	     13.52044719	     -8.14007753	     82.69063343	      1.44322381	     26.68999803	      0.00000000	      0.00000000	     38.74252620	     -8.32158596	      8.12732604	    105.19187093	      1.83594449	     -5.79232254	      0.00000000	      0.00000000	    -17.06900001	      7.83452551	      9.47411201	     89.95068089	    -10.68670311	      7.99594571	     58.87160727	     86.26543732	      0.00000000	      0.00000000	     89.94912968	     -6.18700941	      5.60799618	     55.34929231	     84.87389135	      0.00000000	      0.00000000
      3.47500000	    -27.50693940	     -6.43262966	     -6.45965436	     -0.36708524	      0.74931024	     -0.71920806	     78.20004266	     13.55122884	     -8.03954209	     82.53322406	      1.44047650	     26.63724672	      0.00000000	      0.00000000	     38.72983322	     -8.28055577	      8.14369395	    105.13869453	      1.83501639	     -5.79176423	      0.00000000	      0.00000000	    -17.10242067	      7.80808717	      9.46112588	     89.95064012	    -10.71205233	      8.03696072	     58.81417124	     86.25940924	      0.00000000	      0.00000000	     89.94909121	     -6.18157295	      5.67052523	     55.29543280	     84.89628527	      0.00000000	      0.00000000
